<mxfile host="app.diagrams.net" modified="2023-03-26T14:41:45.602Z" agent="Mozilla/5.0 (Windows NT 10.0; Win64; x64) AppleWebKit/537.36 (KHTML, like Gecko) Chrome/110.0.0.0 Safari/537.36 OPR/96.0.0.0" etag="lnlqMm_F12vHxD7mB0n-" version="21.1.1">
  <diagram name="Страница 1" id="HtdAmOOLtv9Zs6WXyADE">
    <mxGraphModel dx="2018" dy="1162" grid="1" gridSize="10" guides="1" tooltips="1" connect="1" arrows="1" fold="1" page="1" pageScale="1" pageWidth="827" pageHeight="1169" math="0" shadow="0">
      <root>
        <mxCell id="0" />
        <mxCell id="1" parent="0" />
        <mxCell id="HaRK3T3yyvfYGzWSDiRs-1" value="" style="ellipse;html=1;shape=startState;fillColor=#000000;strokeColor=#ff0000;" vertex="1" parent="1">
          <mxGeometry x="395" y="10" width="30" height="30" as="geometry" />
        </mxCell>
        <mxCell id="HaRK3T3yyvfYGzWSDiRs-2" value="" style="edgeStyle=orthogonalEdgeStyle;html=1;verticalAlign=bottom;endArrow=open;endSize=8;strokeColor=#ff0000;rounded=0;entryX=0.5;entryY=0;entryDx=0;entryDy=0;" edge="1" source="HaRK3T3yyvfYGzWSDiRs-1" parent="1" target="HaRK3T3yyvfYGzWSDiRs-4">
          <mxGeometry relative="1" as="geometry">
            <mxPoint x="414" y="100" as="targetPoint" />
          </mxGeometry>
        </mxCell>
        <mxCell id="HaRK3T3yyvfYGzWSDiRs-3" value="" style="ellipse;html=1;shape=endState;fillColor=#000000;strokeColor=#ff0000;" vertex="1" parent="1">
          <mxGeometry x="1335" y="1190" width="30" height="30" as="geometry" />
        </mxCell>
        <mxCell id="HaRK3T3yyvfYGzWSDiRs-4" value="Пользователь&lt;br&gt;Авторизировался?" style="rhombus;whiteSpace=wrap;html=1;fontColor=#000000;fillColor=#ffffc0;strokeColor=#ff0000;" vertex="1" parent="1">
          <mxGeometry x="345" y="110" width="130" height="70" as="geometry" />
        </mxCell>
        <mxCell id="HaRK3T3yyvfYGzWSDiRs-5" value="нет" style="edgeStyle=orthogonalEdgeStyle;html=1;align=left;verticalAlign=bottom;endArrow=open;endSize=8;strokeColor=#ff0000;rounded=0;entryX=0;entryY=0.5;entryDx=0;entryDy=0;" edge="1" source="HaRK3T3yyvfYGzWSDiRs-4" parent="1" target="HaRK3T3yyvfYGzWSDiRs-13">
          <mxGeometry x="-0.2632" y="-5" relative="1" as="geometry">
            <mxPoint x="570" y="145" as="targetPoint" />
            <Array as="points">
              <mxPoint x="550" y="145" />
              <mxPoint x="550" y="150" />
            </Array>
            <mxPoint as="offset" />
          </mxGeometry>
        </mxCell>
        <mxCell id="HaRK3T3yyvfYGzWSDiRs-8" value="" style="edgeStyle=orthogonalEdgeStyle;html=1;align=left;verticalAlign=bottom;endArrow=open;endSize=8;strokeColor=#ff0000;rounded=0;exitX=0;exitY=0.5;exitDx=0;exitDy=0;entryX=1;entryY=0.5;entryDx=0;entryDy=0;" edge="1" parent="1" source="HaRK3T3yyvfYGzWSDiRs-4" target="HaRK3T3yyvfYGzWSDiRs-16">
          <mxGeometry x="-1" relative="1" as="geometry">
            <mxPoint x="250" y="145" as="targetPoint" />
            <mxPoint x="485" y="155" as="sourcePoint" />
            <Array as="points" />
          </mxGeometry>
        </mxCell>
        <mxCell id="HaRK3T3yyvfYGzWSDiRs-9" value="да" style="text;html=1;strokeColor=none;fillColor=none;align=center;verticalAlign=middle;whiteSpace=wrap;rounded=0;" vertex="1" parent="1">
          <mxGeometry x="270" y="120" width="60" height="30" as="geometry" />
        </mxCell>
        <mxCell id="HaRK3T3yyvfYGzWSDiRs-13" value="Condition" style="rhombus;whiteSpace=wrap;html=1;fontColor=#000000;fillColor=#ffffc0;strokeColor=#ff0000;" vertex="1" parent="1">
          <mxGeometry x="640" y="130" width="80" height="40" as="geometry" />
        </mxCell>
        <mxCell id="HaRK3T3yyvfYGzWSDiRs-14" value="Войти как гость" style="edgeStyle=orthogonalEdgeStyle;html=1;align=left;verticalAlign=bottom;endArrow=open;endSize=8;strokeColor=#ff0000;rounded=0;entryX=0;entryY=0.5;entryDx=0;entryDy=0;" edge="1" source="HaRK3T3yyvfYGzWSDiRs-13" parent="1" target="HaRK3T3yyvfYGzWSDiRs-45">
          <mxGeometry x="-1" relative="1" as="geometry">
            <mxPoint x="820" y="150" as="targetPoint" />
          </mxGeometry>
        </mxCell>
        <mxCell id="HaRK3T3yyvfYGzWSDiRs-15" value="Регистрация" style="edgeStyle=orthogonalEdgeStyle;html=1;align=left;verticalAlign=top;endArrow=open;endSize=8;strokeColor=#ff0000;rounded=0;entryX=0.5;entryY=0;entryDx=0;entryDy=0;" edge="1" source="HaRK3T3yyvfYGzWSDiRs-13" parent="1" target="HaRK3T3yyvfYGzWSDiRs-17">
          <mxGeometry x="-1" relative="1" as="geometry">
            <mxPoint x="680" y="230" as="targetPoint" />
          </mxGeometry>
        </mxCell>
        <mxCell id="HaRK3T3yyvfYGzWSDiRs-16" value="Проверка БД" style="ellipse;whiteSpace=wrap;html=1;" vertex="1" parent="1">
          <mxGeometry x="120" y="120" width="120" height="50" as="geometry" />
        </mxCell>
        <mxCell id="HaRK3T3yyvfYGzWSDiRs-17" value="Проверка БД" style="ellipse;whiteSpace=wrap;html=1;" vertex="1" parent="1">
          <mxGeometry x="620" y="250" width="120" height="50" as="geometry" />
        </mxCell>
        <mxCell id="HaRK3T3yyvfYGzWSDiRs-21" value="Успешно?" style="rhombus;whiteSpace=wrap;html=1;fontColor=#000000;fillColor=#ffffc0;strokeColor=#ff0000;" vertex="1" parent="1">
          <mxGeometry x="140" y="200" width="80" height="40" as="geometry" />
        </mxCell>
        <mxCell id="HaRK3T3yyvfYGzWSDiRs-22" value="no" style="edgeStyle=orthogonalEdgeStyle;html=1;align=left;verticalAlign=bottom;endArrow=open;endSize=8;strokeColor=#ff0000;rounded=0;entryX=0;entryY=0.5;entryDx=0;entryDy=0;" edge="1" source="HaRK3T3yyvfYGzWSDiRs-21" parent="1" target="HaRK3T3yyvfYGzWSDiRs-29">
          <mxGeometry x="-1" relative="1" as="geometry">
            <mxPoint x="320" y="220" as="targetPoint" />
          </mxGeometry>
        </mxCell>
        <mxCell id="HaRK3T3yyvfYGzWSDiRs-23" value="yes" style="edgeStyle=orthogonalEdgeStyle;html=1;align=left;verticalAlign=top;endArrow=open;endSize=8;strokeColor=#ff0000;rounded=0;entryX=0;entryY=0.5;entryDx=0;entryDy=0;" edge="1" source="HaRK3T3yyvfYGzWSDiRs-21" parent="1" target="HaRK3T3yyvfYGzWSDiRs-33">
          <mxGeometry x="-1" relative="1" as="geometry">
            <mxPoint x="180" y="300" as="targetPoint" />
            <Array as="points">
              <mxPoint x="180" y="415" />
            </Array>
          </mxGeometry>
        </mxCell>
        <mxCell id="HaRK3T3yyvfYGzWSDiRs-24" value="Успешно?" style="rhombus;whiteSpace=wrap;html=1;fontColor=#000000;fillColor=#ffffc0;strokeColor=#ff0000;" vertex="1" parent="1">
          <mxGeometry x="640" y="320" width="80" height="40" as="geometry" />
        </mxCell>
        <mxCell id="HaRK3T3yyvfYGzWSDiRs-26" value="yes" style="edgeStyle=orthogonalEdgeStyle;html=1;align=left;verticalAlign=top;endArrow=open;endSize=8;strokeColor=#ff0000;rounded=0;entryX=1;entryY=0.5;entryDx=0;entryDy=0;" edge="1" parent="1" source="HaRK3T3yyvfYGzWSDiRs-24" target="HaRK3T3yyvfYGzWSDiRs-33">
          <mxGeometry x="-1" relative="1" as="geometry">
            <mxPoint x="680" y="490" as="targetPoint" />
            <Array as="points">
              <mxPoint x="680" y="415" />
            </Array>
          </mxGeometry>
        </mxCell>
        <mxCell id="HaRK3T3yyvfYGzWSDiRs-27" value="" style="endArrow=classic;html=1;rounded=0;exitX=0.5;exitY=1;exitDx=0;exitDy=0;entryX=0.5;entryY=0;entryDx=0;entryDy=0;" edge="1" parent="1" source="HaRK3T3yyvfYGzWSDiRs-16" target="HaRK3T3yyvfYGzWSDiRs-21">
          <mxGeometry width="50" height="50" relative="1" as="geometry">
            <mxPoint x="450" y="320" as="sourcePoint" />
            <mxPoint x="500" y="270" as="targetPoint" />
          </mxGeometry>
        </mxCell>
        <mxCell id="HaRK3T3yyvfYGzWSDiRs-28" value="" style="endArrow=classic;html=1;rounded=0;exitX=0.5;exitY=1;exitDx=0;exitDy=0;entryX=0.5;entryY=0;entryDx=0;entryDy=0;" edge="1" parent="1" source="HaRK3T3yyvfYGzWSDiRs-17" target="HaRK3T3yyvfYGzWSDiRs-24">
          <mxGeometry width="50" height="50" relative="1" as="geometry">
            <mxPoint x="450" y="320" as="sourcePoint" />
            <mxPoint x="500" y="270" as="targetPoint" />
          </mxGeometry>
        </mxCell>
        <mxCell id="HaRK3T3yyvfYGzWSDiRs-29" value="Вывод сообщения&lt;br&gt;об ошибке" style="ellipse;whiteSpace=wrap;html=1;" vertex="1" parent="1">
          <mxGeometry x="350" y="240" width="120" height="55" as="geometry" />
        </mxCell>
        <mxCell id="HaRK3T3yyvfYGzWSDiRs-31" value="no" style="edgeStyle=orthogonalEdgeStyle;html=1;align=left;verticalAlign=bottom;endArrow=open;endSize=8;strokeColor=#ff0000;rounded=0;entryX=1;entryY=0.5;entryDx=0;entryDy=0;" edge="1" parent="1" source="HaRK3T3yyvfYGzWSDiRs-24" target="HaRK3T3yyvfYGzWSDiRs-29">
          <mxGeometry x="-1" relative="1" as="geometry">
            <mxPoint x="340" y="240" as="targetPoint" />
            <mxPoint x="240" y="240" as="sourcePoint" />
          </mxGeometry>
        </mxCell>
        <mxCell id="HaRK3T3yyvfYGzWSDiRs-32" value="" style="endArrow=classic;html=1;rounded=0;exitX=0.5;exitY=0;exitDx=0;exitDy=0;entryX=0.5;entryY=1;entryDx=0;entryDy=0;" edge="1" parent="1" source="HaRK3T3yyvfYGzWSDiRs-29" target="HaRK3T3yyvfYGzWSDiRs-4">
          <mxGeometry width="50" height="50" relative="1" as="geometry">
            <mxPoint x="520" y="230" as="sourcePoint" />
            <mxPoint x="570" y="180" as="targetPoint" />
          </mxGeometry>
        </mxCell>
        <mxCell id="HaRK3T3yyvfYGzWSDiRs-33" value="Предоставление списка услуг" style="ellipse;whiteSpace=wrap;html=1;" vertex="1" parent="1">
          <mxGeometry x="355" y="390" width="120" height="50" as="geometry" />
        </mxCell>
        <mxCell id="HaRK3T3yyvfYGzWSDiRs-34" value="" style="endArrow=classic;html=1;rounded=0;exitX=0.5;exitY=1;exitDx=0;exitDy=0;" edge="1" parent="1" source="HaRK3T3yyvfYGzWSDiRs-33" target="HaRK3T3yyvfYGzWSDiRs-35">
          <mxGeometry width="50" height="50" relative="1" as="geometry">
            <mxPoint x="560" y="550" as="sourcePoint" />
            <mxPoint x="415" y="500" as="targetPoint" />
          </mxGeometry>
        </mxCell>
        <mxCell id="HaRK3T3yyvfYGzWSDiRs-35" value="" style="shape=line;html=1;strokeWidth=6;strokeColor=#ff0000;" vertex="1" parent="1">
          <mxGeometry x="184" y="510" width="460" height="10" as="geometry" />
        </mxCell>
        <mxCell id="HaRK3T3yyvfYGzWSDiRs-37" value="Редактирование/просмотр профиля" style="ellipse;whiteSpace=wrap;html=1;" vertex="1" parent="1">
          <mxGeometry x="130" y="980" width="120" height="65" as="geometry" />
        </mxCell>
        <mxCell id="HaRK3T3yyvfYGzWSDiRs-38" value="Управление&lt;br&gt;назначенными сеансами" style="ellipse;whiteSpace=wrap;html=1;" vertex="1" parent="1">
          <mxGeometry x="355" y="750" width="120" height="70" as="geometry" />
        </mxCell>
        <mxCell id="HaRK3T3yyvfYGzWSDiRs-39" value="Оформление&lt;br&gt;сеанса" style="ellipse;whiteSpace=wrap;html=1;" vertex="1" parent="1">
          <mxGeometry x="470" y="655" width="120" height="70" as="geometry" />
        </mxCell>
        <mxCell id="HaRK3T3yyvfYGzWSDiRs-40" value="Просмотр статей" style="ellipse;whiteSpace=wrap;html=1;" vertex="1" parent="1">
          <mxGeometry x="564" y="560" width="120" height="70" as="geometry" />
        </mxCell>
        <mxCell id="HaRK3T3yyvfYGzWSDiRs-41" value="" style="endArrow=classic;html=1;rounded=0;entryX=0.5;entryY=0;entryDx=0;entryDy=0;" edge="1" parent="1" target="HaRK3T3yyvfYGzWSDiRs-37">
          <mxGeometry width="50" height="50" relative="1" as="geometry">
            <mxPoint x="190" y="520" as="sourcePoint" />
            <mxPoint x="570" y="460" as="targetPoint" />
          </mxGeometry>
        </mxCell>
        <mxCell id="HaRK3T3yyvfYGzWSDiRs-42" value="" style="endArrow=classic;html=1;rounded=0;entryX=0.5;entryY=0;entryDx=0;entryDy=0;" edge="1" parent="1" source="HaRK3T3yyvfYGzWSDiRs-35" target="HaRK3T3yyvfYGzWSDiRs-38">
          <mxGeometry width="50" height="50" relative="1" as="geometry">
            <mxPoint x="215" y="528" as="sourcePoint" />
            <mxPoint x="214" y="570" as="targetPoint" />
          </mxGeometry>
        </mxCell>
        <mxCell id="HaRK3T3yyvfYGzWSDiRs-43" value="" style="endArrow=classic;html=1;rounded=0;entryX=0.5;entryY=0;entryDx=0;entryDy=0;exitX=0.75;exitY=0.5;exitDx=0;exitDy=0;exitPerimeter=0;" edge="1" parent="1" source="HaRK3T3yyvfYGzWSDiRs-35" target="HaRK3T3yyvfYGzWSDiRs-39">
          <mxGeometry width="50" height="50" relative="1" as="geometry">
            <mxPoint x="483" y="515" as="sourcePoint" />
            <mxPoint x="224" y="580" as="targetPoint" />
          </mxGeometry>
        </mxCell>
        <mxCell id="HaRK3T3yyvfYGzWSDiRs-44" value="" style="endArrow=classic;html=1;rounded=0;exitX=0.958;exitY=0.859;exitDx=0;exitDy=0;exitPerimeter=0;entryX=0.5;entryY=0;entryDx=0;entryDy=0;" edge="1" parent="1" source="HaRK3T3yyvfYGzWSDiRs-35" target="HaRK3T3yyvfYGzWSDiRs-40">
          <mxGeometry width="50" height="50" relative="1" as="geometry">
            <mxPoint x="235" y="548" as="sourcePoint" />
            <mxPoint x="234" y="590" as="targetPoint" />
          </mxGeometry>
        </mxCell>
        <mxCell id="HaRK3T3yyvfYGzWSDiRs-45" value="Предоставление списка услуг" style="ellipse;whiteSpace=wrap;html=1;" vertex="1" parent="1">
          <mxGeometry x="1160" y="125" width="120" height="50" as="geometry" />
        </mxCell>
        <mxCell id="HaRK3T3yyvfYGzWSDiRs-46" value="" style="shape=line;html=1;strokeWidth=6;strokeColor=#ff0000;" vertex="1" parent="1">
          <mxGeometry x="990" y="227.5" width="460" height="10" as="geometry" />
        </mxCell>
        <mxCell id="HaRK3T3yyvfYGzWSDiRs-48" value="Просмотр информации о психологическом центре" style="ellipse;whiteSpace=wrap;html=1;" vertex="1" parent="1">
          <mxGeometry x="240" y="870" width="120" height="70" as="geometry" />
        </mxCell>
        <mxCell id="HaRK3T3yyvfYGzWSDiRs-49" value="" style="endArrow=classic;html=1;rounded=0;exitX=0.25;exitY=0.5;exitDx=0;exitDy=0;exitPerimeter=0;entryX=0.5;entryY=0;entryDx=0;entryDy=0;" edge="1" parent="1" source="HaRK3T3yyvfYGzWSDiRs-35" target="HaRK3T3yyvfYGzWSDiRs-48">
          <mxGeometry width="50" height="50" relative="1" as="geometry">
            <mxPoint x="570" y="750" as="sourcePoint" />
            <mxPoint x="620" y="700" as="targetPoint" />
          </mxGeometry>
        </mxCell>
        <mxCell id="HaRK3T3yyvfYGzWSDiRs-78" style="edgeStyle=orthogonalEdgeStyle;rounded=0;orthogonalLoop=1;jettySize=auto;html=1;exitX=1;exitY=0.5;exitDx=0;exitDy=0;entryX=0.25;entryY=0.5;entryDx=0;entryDy=0;entryPerimeter=0;" edge="1" parent="1" source="HaRK3T3yyvfYGzWSDiRs-50" target="HaRK3T3yyvfYGzWSDiRs-74">
          <mxGeometry relative="1" as="geometry" />
        </mxCell>
        <mxCell id="HaRK3T3yyvfYGzWSDiRs-50" value="Предоставление&lt;br&gt;списка статей" style="ellipse;whiteSpace=wrap;html=1;" vertex="1" parent="1">
          <mxGeometry x="770" y="555" width="120" height="80" as="geometry" />
        </mxCell>
        <mxCell id="HaRK3T3yyvfYGzWSDiRs-51" value="" style="endArrow=classic;html=1;rounded=0;exitX=1;exitY=0.5;exitDx=0;exitDy=0;entryX=0;entryY=0.5;entryDx=0;entryDy=0;" edge="1" parent="1" source="HaRK3T3yyvfYGzWSDiRs-40" target="HaRK3T3yyvfYGzWSDiRs-50">
          <mxGeometry width="50" height="50" relative="1" as="geometry">
            <mxPoint x="570" y="760" as="sourcePoint" />
            <mxPoint x="620" y="710" as="targetPoint" />
          </mxGeometry>
        </mxCell>
        <mxCell id="HaRK3T3yyvfYGzWSDiRs-79" style="edgeStyle=orthogonalEdgeStyle;rounded=0;orthogonalLoop=1;jettySize=auto;html=1;exitX=1;exitY=0.5;exitDx=0;exitDy=0;entryX=0.25;entryY=0.5;entryDx=0;entryDy=0;entryPerimeter=0;" edge="1" parent="1" source="HaRK3T3yyvfYGzWSDiRs-52" target="HaRK3T3yyvfYGzWSDiRs-74">
          <mxGeometry relative="1" as="geometry" />
        </mxCell>
        <mxCell id="HaRK3T3yyvfYGzWSDiRs-52" value="Предоставление формы для оформления &lt;br&gt;сеанса" style="ellipse;whiteSpace=wrap;html=1;" vertex="1" parent="1">
          <mxGeometry x="770" y="650" width="120" height="80" as="geometry" />
        </mxCell>
        <mxCell id="HaRK3T3yyvfYGzWSDiRs-80" style="edgeStyle=orthogonalEdgeStyle;rounded=0;orthogonalLoop=1;jettySize=auto;html=1;exitX=1;exitY=0.5;exitDx=0;exitDy=0;entryX=0.25;entryY=0.5;entryDx=0;entryDy=0;entryPerimeter=0;" edge="1" parent="1" source="HaRK3T3yyvfYGzWSDiRs-53" target="HaRK3T3yyvfYGzWSDiRs-74">
          <mxGeometry relative="1" as="geometry" />
        </mxCell>
        <mxCell id="HaRK3T3yyvfYGzWSDiRs-53" value="Предоставление инструментов для редактирования назначенных сеансов" style="ellipse;whiteSpace=wrap;html=1;" vertex="1" parent="1">
          <mxGeometry x="770" y="740" width="120" height="90" as="geometry" />
        </mxCell>
        <mxCell id="HaRK3T3yyvfYGzWSDiRs-81" style="edgeStyle=orthogonalEdgeStyle;rounded=0;orthogonalLoop=1;jettySize=auto;html=1;exitX=1;exitY=0.5;exitDx=0;exitDy=0;entryX=0.25;entryY=0.5;entryDx=0;entryDy=0;entryPerimeter=0;" edge="1" parent="1" source="HaRK3T3yyvfYGzWSDiRs-54" target="HaRK3T3yyvfYGzWSDiRs-74">
          <mxGeometry relative="1" as="geometry" />
        </mxCell>
        <mxCell id="HaRK3T3yyvfYGzWSDiRs-54" value="Предоставление информации о психологическом центре" style="ellipse;whiteSpace=wrap;html=1;" vertex="1" parent="1">
          <mxGeometry x="770" y="865" width="120" height="80" as="geometry" />
        </mxCell>
        <mxCell id="HaRK3T3yyvfYGzWSDiRs-55" value="" style="endArrow=classic;html=1;rounded=0;entryX=0;entryY=0.5;entryDx=0;entryDy=0;exitX=1;exitY=0.5;exitDx=0;exitDy=0;" edge="1" parent="1" source="HaRK3T3yyvfYGzWSDiRs-39" target="HaRK3T3yyvfYGzWSDiRs-52">
          <mxGeometry width="50" height="50" relative="1" as="geometry">
            <mxPoint x="590" y="700" as="sourcePoint" />
            <mxPoint x="730" y="740" as="targetPoint" />
          </mxGeometry>
        </mxCell>
        <mxCell id="HaRK3T3yyvfYGzWSDiRs-56" value="" style="endArrow=classic;html=1;rounded=0;exitX=1;exitY=0.5;exitDx=0;exitDy=0;entryX=0;entryY=0.5;entryDx=0;entryDy=0;" edge="1" parent="1" source="HaRK3T3yyvfYGzWSDiRs-38" target="HaRK3T3yyvfYGzWSDiRs-53">
          <mxGeometry width="50" height="50" relative="1" as="geometry">
            <mxPoint x="680" y="790" as="sourcePoint" />
            <mxPoint x="730" y="740" as="targetPoint" />
          </mxGeometry>
        </mxCell>
        <mxCell id="HaRK3T3yyvfYGzWSDiRs-57" value="" style="endArrow=classic;html=1;rounded=0;exitX=1;exitY=0.5;exitDx=0;exitDy=0;entryX=0;entryY=0.5;entryDx=0;entryDy=0;" edge="1" parent="1" source="HaRK3T3yyvfYGzWSDiRs-48" target="HaRK3T3yyvfYGzWSDiRs-54">
          <mxGeometry width="50" height="50" relative="1" as="geometry">
            <mxPoint x="680" y="790" as="sourcePoint" />
            <mxPoint x="730" y="740" as="targetPoint" />
          </mxGeometry>
        </mxCell>
        <mxCell id="HaRK3T3yyvfYGzWSDiRs-82" style="edgeStyle=orthogonalEdgeStyle;rounded=0;orthogonalLoop=1;jettySize=auto;html=1;exitX=1;exitY=0.5;exitDx=0;exitDy=0;entryX=0.25;entryY=0.5;entryDx=0;entryDy=0;entryPerimeter=0;" edge="1" parent="1" source="HaRK3T3yyvfYGzWSDiRs-58" target="HaRK3T3yyvfYGzWSDiRs-74">
          <mxGeometry relative="1" as="geometry" />
        </mxCell>
        <mxCell id="HaRK3T3yyvfYGzWSDiRs-58" value="Предоставление инструментов для редактирования данных профиля" style="ellipse;whiteSpace=wrap;html=1;" vertex="1" parent="1">
          <mxGeometry x="770" y="972.5" width="120" height="80" as="geometry" />
        </mxCell>
        <mxCell id="HaRK3T3yyvfYGzWSDiRs-59" value="" style="endArrow=classic;html=1;rounded=0;exitX=1;exitY=0.5;exitDx=0;exitDy=0;entryX=0;entryY=0.5;entryDx=0;entryDy=0;" edge="1" parent="1" source="HaRK3T3yyvfYGzWSDiRs-37" target="HaRK3T3yyvfYGzWSDiRs-58">
          <mxGeometry width="50" height="50" relative="1" as="geometry">
            <mxPoint x="680" y="800" as="sourcePoint" />
            <mxPoint x="730" y="750" as="targetPoint" />
          </mxGeometry>
        </mxCell>
        <mxCell id="HaRK3T3yyvfYGzWSDiRs-60" value="Просмотр статей" style="ellipse;whiteSpace=wrap;html=1;" vertex="1" parent="1">
          <mxGeometry x="1160" y="370" width="120" height="70" as="geometry" />
        </mxCell>
        <mxCell id="HaRK3T3yyvfYGzWSDiRs-61" value="Просмотр информации о психологическом центре" style="ellipse;whiteSpace=wrap;html=1;" vertex="1" parent="1">
          <mxGeometry x="990" y="470" width="120" height="70" as="geometry" />
        </mxCell>
        <mxCell id="HaRK3T3yyvfYGzWSDiRs-62" value="Оформление&lt;br&gt;сеанса" style="ellipse;whiteSpace=wrap;html=1;" vertex="1" parent="1">
          <mxGeometry x="1320" y="280" width="120" height="70" as="geometry" />
        </mxCell>
        <mxCell id="HaRK3T3yyvfYGzWSDiRs-63" value="" style="endArrow=classic;html=1;rounded=0;exitX=0.848;exitY=0.25;exitDx=0;exitDy=0;exitPerimeter=0;entryX=0.5;entryY=0;entryDx=0;entryDy=0;" edge="1" parent="1" source="HaRK3T3yyvfYGzWSDiRs-46" target="HaRK3T3yyvfYGzWSDiRs-62">
          <mxGeometry width="50" height="50" relative="1" as="geometry">
            <mxPoint x="1130" y="370" as="sourcePoint" />
            <mxPoint x="1180" y="320" as="targetPoint" />
          </mxGeometry>
        </mxCell>
        <mxCell id="HaRK3T3yyvfYGzWSDiRs-64" value="" style="endArrow=classic;html=1;rounded=0;exitX=0.503;exitY=0.736;exitDx=0;exitDy=0;exitPerimeter=0;entryX=0.5;entryY=0;entryDx=0;entryDy=0;" edge="1" parent="1" source="HaRK3T3yyvfYGzWSDiRs-46" target="HaRK3T3yyvfYGzWSDiRs-60">
          <mxGeometry width="50" height="50" relative="1" as="geometry">
            <mxPoint x="1130" y="370" as="sourcePoint" />
            <mxPoint x="1180" y="320" as="targetPoint" />
          </mxGeometry>
        </mxCell>
        <mxCell id="HaRK3T3yyvfYGzWSDiRs-65" value="" style="endArrow=classic;html=1;rounded=0;exitX=0.123;exitY=0.85;exitDx=0;exitDy=0;exitPerimeter=0;entryX=0.5;entryY=0;entryDx=0;entryDy=0;" edge="1" parent="1" source="HaRK3T3yyvfYGzWSDiRs-46" target="HaRK3T3yyvfYGzWSDiRs-61">
          <mxGeometry width="50" height="50" relative="1" as="geometry">
            <mxPoint x="1130" y="370" as="sourcePoint" />
            <mxPoint x="1180" y="320" as="targetPoint" />
          </mxGeometry>
        </mxCell>
        <mxCell id="HaRK3T3yyvfYGzWSDiRs-83" style="edgeStyle=orthogonalEdgeStyle;rounded=0;orthogonalLoop=1;jettySize=auto;html=1;exitX=1;exitY=0.5;exitDx=0;exitDy=0;entryX=0.75;entryY=0.5;entryDx=0;entryDy=0;entryPerimeter=0;" edge="1" parent="1" source="HaRK3T3yyvfYGzWSDiRs-66" target="HaRK3T3yyvfYGzWSDiRs-74">
          <mxGeometry relative="1" as="geometry" />
        </mxCell>
        <mxCell id="HaRK3T3yyvfYGzWSDiRs-66" value="Предоставление гостевой &lt;br&gt;формы для оформления &lt;br&gt;сеанса" style="ellipse;whiteSpace=wrap;html=1;" vertex="1" parent="1">
          <mxGeometry x="1510" y="275" width="120" height="80" as="geometry" />
        </mxCell>
        <mxCell id="HaRK3T3yyvfYGzWSDiRs-67" value="" style="endArrow=classic;html=1;rounded=0;exitX=1;exitY=0.5;exitDx=0;exitDy=0;entryX=0;entryY=0.5;entryDx=0;entryDy=0;" edge="1" parent="1" source="HaRK3T3yyvfYGzWSDiRs-62" target="HaRK3T3yyvfYGzWSDiRs-66">
          <mxGeometry width="50" height="50" relative="1" as="geometry">
            <mxPoint x="1120" y="540" as="sourcePoint" />
            <mxPoint x="1170" y="490" as="targetPoint" />
          </mxGeometry>
        </mxCell>
        <mxCell id="HaRK3T3yyvfYGzWSDiRs-84" style="edgeStyle=orthogonalEdgeStyle;rounded=0;orthogonalLoop=1;jettySize=auto;html=1;exitX=1;exitY=0.5;exitDx=0;exitDy=0;entryX=0.75;entryY=0.5;entryDx=0;entryDy=0;entryPerimeter=0;" edge="1" parent="1" source="HaRK3T3yyvfYGzWSDiRs-68" target="HaRK3T3yyvfYGzWSDiRs-74">
          <mxGeometry relative="1" as="geometry">
            <Array as="points">
              <mxPoint x="1650" y="405" />
              <mxPoint x="1650" y="710" />
              <mxPoint x="1490" y="710" />
            </Array>
          </mxGeometry>
        </mxCell>
        <mxCell id="HaRK3T3yyvfYGzWSDiRs-68" value="Предоставление&lt;br style=&quot;border-color: var(--border-color);&quot;&gt;списка статей" style="ellipse;whiteSpace=wrap;html=1;" vertex="1" parent="1">
          <mxGeometry x="1510" y="365" width="120" height="80" as="geometry" />
        </mxCell>
        <mxCell id="HaRK3T3yyvfYGzWSDiRs-69" value="" style="endArrow=classic;html=1;rounded=0;exitX=1;exitY=0.5;exitDx=0;exitDy=0;entryX=0;entryY=0.5;entryDx=0;entryDy=0;" edge="1" parent="1" source="HaRK3T3yyvfYGzWSDiRs-60" target="HaRK3T3yyvfYGzWSDiRs-68">
          <mxGeometry width="50" height="50" relative="1" as="geometry">
            <mxPoint x="1270" y="570" as="sourcePoint" />
            <mxPoint x="1320" y="520" as="targetPoint" />
          </mxGeometry>
        </mxCell>
        <mxCell id="HaRK3T3yyvfYGzWSDiRs-85" style="edgeStyle=orthogonalEdgeStyle;rounded=0;orthogonalLoop=1;jettySize=auto;html=1;exitX=1;exitY=0.5;exitDx=0;exitDy=0;entryX=0.75;entryY=0.5;entryDx=0;entryDy=0;entryPerimeter=0;" edge="1" parent="1" source="HaRK3T3yyvfYGzWSDiRs-70" target="HaRK3T3yyvfYGzWSDiRs-74">
          <mxGeometry relative="1" as="geometry">
            <Array as="points">
              <mxPoint x="1650" y="505" />
              <mxPoint x="1650" y="710" />
              <mxPoint x="1490" y="710" />
            </Array>
          </mxGeometry>
        </mxCell>
        <mxCell id="HaRK3T3yyvfYGzWSDiRs-70" value="Предоставление информации о психологическом центре" style="ellipse;whiteSpace=wrap;html=1;" vertex="1" parent="1">
          <mxGeometry x="1510" y="465" width="120" height="80" as="geometry" />
        </mxCell>
        <mxCell id="HaRK3T3yyvfYGzWSDiRs-71" value="" style="endArrow=classic;html=1;rounded=0;exitX=1;exitY=0.5;exitDx=0;exitDy=0;entryX=0;entryY=0.5;entryDx=0;entryDy=0;" edge="1" parent="1" source="HaRK3T3yyvfYGzWSDiRs-61" target="HaRK3T3yyvfYGzWSDiRs-70">
          <mxGeometry width="50" height="50" relative="1" as="geometry">
            <mxPoint x="950" y="720" as="sourcePoint" />
            <mxPoint x="1000" y="670" as="targetPoint" />
          </mxGeometry>
        </mxCell>
        <mxCell id="HaRK3T3yyvfYGzWSDiRs-72" value="" style="endArrow=classic;html=1;rounded=0;exitX=0.5;exitY=1;exitDx=0;exitDy=0;entryX=0.504;entryY=0.55;entryDx=0;entryDy=0;entryPerimeter=0;" edge="1" parent="1" source="HaRK3T3yyvfYGzWSDiRs-45" target="HaRK3T3yyvfYGzWSDiRs-46">
          <mxGeometry width="50" height="50" relative="1" as="geometry">
            <mxPoint x="1070" y="460" as="sourcePoint" />
            <mxPoint x="1120" y="410" as="targetPoint" />
          </mxGeometry>
        </mxCell>
        <mxCell id="HaRK3T3yyvfYGzWSDiRs-74" value="" style="shape=line;html=1;strokeWidth=6;strokeColor=#ff0000;" vertex="1" parent="1">
          <mxGeometry x="1070" y="1060" width="560" height="10" as="geometry" />
        </mxCell>
        <mxCell id="HaRK3T3yyvfYGzWSDiRs-75" value="" style="edgeStyle=orthogonalEdgeStyle;html=1;verticalAlign=bottom;endArrow=open;endSize=8;strokeColor=#ff0000;rounded=0;entryX=0.5;entryY=0;entryDx=0;entryDy=0;" edge="1" source="HaRK3T3yyvfYGzWSDiRs-74" parent="1" target="HaRK3T3yyvfYGzWSDiRs-3">
          <mxGeometry relative="1" as="geometry">
            <mxPoint x="1170" y="1140" as="targetPoint" />
            <Array as="points">
              <mxPoint x="1350" y="1160" />
              <mxPoint x="1350" y="1160" />
            </Array>
          </mxGeometry>
        </mxCell>
      </root>
    </mxGraphModel>
  </diagram>
</mxfile>
